<svg preserveAspectRatio="none" overflow="visible" style="display: block;" width="10.3138" height="12.6667" viewBox="0 0 10.3138 12.6667" fill="none" xmlns="http://www.w3.org/2000/svg">
<path id="Vector" d="M8.61378 6.7294C8.63158 8.64629 10.2954 9.28418 10.3138 9.2923C10.2997 9.33726 10.048 10.2013 9.43725 11.0938C8.90928 11.8655 8.36137 12.6343 7.49822 12.6502C6.65008 12.6658 6.37735 12.1473 5.40769 12.1473C4.43832 12.1473 4.13531 12.6343 3.33245 12.6658C2.49929 12.6974 1.86482 11.8314 1.33251 11.0626C0.244763 9.49002 -0.586502 6.61882 0.529678 4.68072C1.08417 3.71825 2.0751 3.10877 3.15065 3.09314C3.9688 3.07754 4.74101 3.64356 5.24118 3.64356C5.74103 3.64356 6.67943 2.96286 7.66597 3.06283C8.07897 3.08002 9.23828 3.22966 9.98267 4.31929C9.92269 4.35647 8.5994 5.12683 8.61378 6.7294V6.7294ZM7.01981 2.02242C7.46214 1.487 7.75986 0.741632 7.67864 0C7.04104 0.0256258 6.27006 0.424872 5.81273 0.960005C5.40287 1.43389 5.04393 2.19237 5.14078 2.91933C5.85145 2.97431 6.57745 2.55819 7.01981 2.02242Z" fill="#E0E2DF"/>
</svg>
